<?xml version="1.0" standalone="no"?>
<!DOCTYPE svg PUBLIC "-//W3C//DTD SVG 20010904//EN"
 "http://www.w3.org/TR/2001/REC-SVG-20010904/DTD/svg10.dtd">
<svg version="1.0" xmlns="http://www.w3.org/2000/svg"
 width="1600.000000pt" height="1600.000000pt" viewBox="0 0 1600.000000 1600.000000"
 preserveAspectRatio="xMidYMid meet">
<metadata>
Created by potrace 1.11, written by Peter Selinger 2001-2013
</metadata>
<g transform="translate(0.000000,1600.000000) scale(0.100000,-0.100000)"
fill="#000000" stroke="none">
<path d="M7600 11940 l0 -3560 -2490 0 -2490 0 0 -400 0 -400 2490 0 2490 0 0
-3550 0 -3550 400 0 400 0 0 3550 0 3550 2490 0 2490 0 0 400 0 400 -2490 0
-2490 0 0 3560 0 3560 -400 0 -400 0 0 -3560z"/>
<path d="M9022 14584 l3 -508 30 -7 c17 -4 71 -14 120 -23 50 -9 99 -18 110
-20 253 -48 832 -227 1050 -326 11 -5 70 -30 130 -56 183 -77 516 -246 633
-321 29 -18 54 -33 56 -33 17 0 359 -227 496 -329 72 -53 320 -249 330 -260 3
-4 43 -40 90 -81 134 -117 332 -311 476 -466 187 -199 435 -518 598 -769 43
-66 89 -136 101 -155 53 -80 183 -316 260 -470 272 -541 466 -1125 561 -1689
3 -18 8 -43 10 -55 2 -11 7 -41 10 -66 3 -25 8 -53 10 -64 2 -10 6 -43 10 -74
3 -30 8 -63 9 -71 2 -9 6 -50 10 -91 4 -41 8 -85 10 -97 24 -158 25 -959 1
-1089 -2 -10 -7 -55 -10 -99 -4 -44 -9 -91 -11 -105 -2 -14 -7 -50 -10 -80 -3
-30 -8 -62 -10 -70 -2 -8 -7 -37 -10 -65 -9 -64 -11 -78 -24 -145 -6 -30 -12
-66 -15 -80 -12 -64 -51 -242 -61 -280 -2 -8 -16 -60 -30 -115 -58 -219 -150
-502 -207 -640 -16 -38 -31 -74 -32 -80 -2 -5 -8 -21 -13 -35 -179 -426 -342
-731 -585 -1094 -754 -1128 -1878 -1988 -3157 -2415 -274 -92 -636 -185 -863
-222 l-78 -13 0 -508 0 -509 33 6 c17 3 84 14 147 24 1099 186 2138 626 3035
1286 133 98 327 250 371 290 6 6 35 30 64 55 270 229 572 537 854 870 64 76
279 357 329 430 417 614 657 1075 887 1703 41 113 128 382 146 447 74 284 139
565 157 675 3 17 11 62 17 100 7 39 14 79 15 90 7 45 16 111 20 135 2 14 7 52
11 85 3 33 8 68 10 78 2 10 6 55 9 100 4 45 8 93 10 107 27 161 26 1093 0
1229 -2 11 -6 55 -9 98 -4 43 -8 87 -10 98 -2 11 -7 47 -10 80 -7 59 -13 106
-21 155 -14 84 -17 107 -20 125 -9 69 -71 380 -96 480 -11 44 -22 89 -24 99
-12 56 -50 192 -96 342 -156 516 -392 1055 -658 1504 -31 52 -58 100 -60 105
-24 57 -384 581 -482 700 -9 11 -60 73 -112 137 -96 117 -112 136 -197 232
-130 146 -439 454 -583 581 -252 221 -512 422 -782 602 -487 326 -998 583
-1552 784 -207 74 -542 177 -669 204 -10 2 -55 13 -99 24 -108 27 -357 77
-480 96 -55 8 -112 18 -128 21 l-27 6 2 -508z"/>
<path d="M6869 15076 c-4 -4 -37 -11 -174 -33 -109 -17 -428 -92 -675 -158
-115 -30 -519 -166 -597 -201 -17 -8 -33 -14 -36 -14 -16 0 -380 -160 -524
-231 -350 -171 -591 -314 -993 -586 -69 -47 -348 -262 -445 -343 -538 -449
-994 -955 -1382 -1535 -426 -636 -742 -1327 -947 -2065 -25 -91 -47 -176 -50
-190 -2 -14 -13 -61 -24 -105 -19 -72 -61 -283 -76 -375 -3 -19 -8 -46 -10
-60 -11 -59 -36 -230 -42 -285 -3 -33 -8 -68 -10 -78 -2 -10 -6 -55 -9 -100
-4 -45 -8 -93 -10 -107 -27 -161 -27 -1023 -1 -1230 2 -14 7 -61 11 -104 4
-43 8 -86 10 -95 1 -9 6 -45 10 -81 4 -36 9 -72 10 -80 2 -8 6 -37 9 -65 4
-27 9 -57 11 -65 2 -8 6 -37 10 -65 11 -90 84 -436 125 -595 22 -85 42 -162
44 -170 25 -94 136 -442 155 -485 5 -11 19 -49 32 -85 12 -36 26 -69 31 -74 4
-6 8 -16 8 -23 0 -8 39 -105 87 -216 96 -224 264 -560 368 -737 37 -63 76
-131 87 -150 175 -305 588 -855 857 -1139 230 -244 443 -448 637 -611 54 -45
110 -92 124 -104 14 -11 45 -37 70 -56 25 -19 47 -37 50 -40 3 -3 64 -48 135
-101 576 -421 1169 -740 1810 -972 162 -58 235 -82 455 -148 202 -61 679 -168
822 -185 29 -4 56 -8 61 -11 4 -2 7 226 7 506 0 281 -2 511 -5 511 -3 0 -38 7
-78 15 -40 8 -83 16 -97 19 -14 2 -83 18 -155 35 -770 187 -1457 498 -2115
958 -120 83 -376 284 -460 359 -19 17 -62 55 -95 84 -388 345 -760 776 -1039
1205 -43 66 -89 136 -101 155 -53 80 -183 315 -256 460 -155 311 -246 529
-355 860 -87 263 -177 624 -210 840 -2 19 -7 46 -10 60 -10 51 -19 115 -29
195 -4 28 -8 59 -10 71 -2 11 -6 52 -10 90 -3 38 -8 83 -10 99 -25 196 -25
960 -1 1091 2 10 7 55 10 99 4 44 9 91 11 105 2 14 7 50 10 80 3 30 8 62 10
70 2 8 6 35 9 60 3 25 8 56 11 70 3 14 8 41 11 60 12 71 46 238 71 340 13 58
26 112 28 120 19 89 112 390 177 570 388 1080 1137 2095 2064 2795 55 41 105
79 112 86 7 6 100 68 205 138 224 149 436 272 667 387 168 84 426 198 438 195
1 -1 16 6 33 15 113 58 558 198 849 267 143 34 166 39 288 62 l32 6 -2 506
c-3 476 -6 532 -29 509z"/>
</g>
</svg>
